<?xml version="1.0" encoding="UTF-8"?>
<svg version="1.1" xmlns="http://www.w3.org/2000/svg" width="293" height="304">
<path d="M0 0 C1.54238266 0.11583111 3.08390272 0.24316572 4.625 0.375 C5.91277344 0.47941406 5.91277344 0.47941406 7.2265625 0.5859375 C10.32334813 1.04827451 13.03134899 2.00681161 16 3 C18.78946517 3.59936573 21.5723196 4.15921124 24.375 4.6875 C33.57035871 6.47524311 42.72570774 8.42988387 51.875 10.4375 C52.91155731 10.66469727 52.91155731 10.66469727 53.96905518 10.89648438 C62.57260724 12.78412001 71.16584698 14.7133626 79.75 16.6875 C86.19061335 18.16792534 92.63832867 19.54970489 99.125 20.8125 C108.22880883 22.59561192 117.29681571 24.53923358 126.35809326 26.52572632 C127.98145709 26.88075263 129.60535368 27.23335241 131.22979736 27.58340454 C133.53629349 28.08120027 135.84056907 28.58827745 138.14453125 29.09765625 C138.83238205 29.24446838 139.52023285 29.39128052 140.22892761 29.5425415 C144.80788349 30.56921228 148.85391395 31.83020514 153 34 C154.05517578 35.75634766 154.05517578 35.75634766 154.3203125 37.7890625 C154.44051758 38.58860352 154.56072266 39.38814453 154.68457031 40.21191406 C154.84070801 41.5920166 154.84070801 41.5920166 155 43 C155.14791992 44.05670898 155.29583984 45.11341797 155.44824219 46.20214844 C155.95874351 49.92269867 156.4199146 53.64728117 156.875 57.375 C157.22029984 60.14369649 157.57011537 62.91180476 157.921875 65.6796875 C158.0103067 66.37604309 158.0987384 67.07239868 158.18984985 67.78985596 C159.07642464 74.70692869 160.08646907 81.6041938 161.125 88.5 C161.29209473 89.6132666 161.45918945 90.7265332 161.63134766 91.87353516 C161.9464711 93.97235228 162.26172981 96.0711491 162.57714844 98.16992188 C163.15351687 102.02746397 163.71581922 105.88639076 164.25 109.75 C164.39953125 110.81734375 164.5490625 111.8846875 164.703125 112.984375 C165.03337084 116.33897751 165.05078395 119.631331 165 123 C160.49831545 122.09746327 157.49514603 119.57659793 153.9375 116.8125 C152.49673261 115.71270424 151.05529849 114.61378149 149.61328125 113.515625 C148.85869629 112.93876953 148.10411133 112.36191406 147.32666016 111.76757812 C143.45521478 108.82641711 139.54135399 105.9434498 135.625 103.0625 C134.82900391 102.47645996 134.03300781 101.89041992 133.21289062 101.28662109 C125.58671664 95.68086003 117.91541092 90.13844091 110.23388672 84.60888672 C107.98930216 82.99229522 105.74629386 81.37354356 103.50390625 79.75390625 C102.75939209 79.21620605 102.01487793 78.67850586 101.24780273 78.12451172 C99.76110201 77.05005678 98.27492768 75.97487308 96.78930664 74.89892578 C92.82953094 72.03310946 88.85745359 69.18652601 84.8671875 66.36328125 C84.031875 65.76902344 83.1965625 65.17476563 82.3359375 64.5625 C80.72255382 63.41520494 79.10547814 62.27308026 77.484375 61.13671875 C76.40542969 60.36714844 76.40542969 60.36714844 75.3046875 59.58203125 C74.66515137 59.13061768 74.02561523 58.6792041 73.36669922 58.21411133 C72.91568848 57.81345459 72.46467773 57.41279785 72 57 C72 56.34 72 55.68 72 55 C71.29230469 54.75894531 70.58460937 54.51789063 69.85546875 54.26953125 C66.55178464 52.80072504 64.138392 50.94451962 61.3125 48.6875 C56.00933524 44.51100644 50.60888623 40.49855745 45.125 36.5625 C43.5754707 35.44928852 42.02599134 34.33600755 40.4765625 33.22265625 C39.72149414 32.68012207 38.96642578 32.13758789 38.18847656 31.57861328 C34.34369252 28.80525612 30.52742298 25.99332287 26.71044922 23.18188477 C23.21282124 20.61004428 19.69993589 18.06122274 16.171875 15.53125 C15.35396484 14.94408203 14.53605469 14.35691406 13.69335938 13.75195312 C12.09742251 12.60762429 10.49983495 11.46559314 8.90039062 10.32617188 C8.17529297 9.80603516 7.45019531 9.28589844 6.703125 8.75 C6.06020508 8.29109375 5.41728516 7.8321875 4.75488281 7.359375 C2.99060014 5.99271864 1.43406868 4.71337535 0 3 C0 2.01 0 1.02 0 0 Z " fill="#DEDEDE" transform="translate(0,102)"/>
<path d="M0 0 C6.45639072 0.56858134 12.73082214 1.89952459 19.0625 3.25 C20.61360474 3.57834839 20.61360474 3.57834839 22.19604492 3.91333008 C24.36344839 4.3731221 26.53051796 4.83449068 28.69726562 5.29736328 C31.98904875 5.99767019 35.28330228 6.68524676 38.578125 7.37109375 C40.65634977 7.80942305 42.73447842 8.24820839 44.8125 8.6875 C45.79033447 8.88956055 46.76816895 9.09162109 47.77563477 9.29980469 C48.68112061 9.49348633 49.58660645 9.68716797 50.51953125 9.88671875 C51.31464111 10.05389404 52.10975098 10.22106934 52.92895508 10.39331055 C55 11 55 11 58 13 C56.54997977 17.10839064 54.6020866 20.50344613 52 24 C51.34 24 50.68 24 50 24 C49.74347656 24.73089844 49.48695313 25.46179688 49.22265625 26.21484375 C47.94085523 29.13472914 46.4800707 31.12379437 44.4375 33.5625 C39.77480188 39.24358525 35.38843389 45.10587931 31 51 C29.60456173 52.85446401 28.2087227 54.70862652 26.8125 56.5625 C22.68605573 62.06686882 18.58850344 67.59239925 14.5 73.125 C13.56377808 74.38872437 13.56377808 74.38872437 12.60864258 75.67797852 C12.02622803 76.46744873 11.44381348 77.25691895 10.84375 78.0703125 C10.31974609 78.77945801 9.79574219 79.48860352 9.25585938 80.21923828 C7.94763144 81.97972366 7.94763144 81.97972366 7 84 C6.34 84 5.68 84 5 84 C4.773125 84.680625 4.54625 85.36125 4.3125 86.0625 C2.68773854 89.6988709 0.67196743 93.02829263 -2 96 C-2.66 96 -3.32 96 -4 96 C-4.23847656 96.70382813 -4.47695312 97.40765625 -4.72265625 98.1328125 C-6.22237619 101.49915634 -8.14343988 103.98999 -10.4375 106.875 C-11.34401388 108.02741574 -12.24890075 109.18111276 -13.15234375 110.3359375 C-13.62140137 110.9350293 -14.09045898 111.53412109 -14.57373047 112.15136719 C-16.94355273 115.22296838 -19.21974321 118.36166043 -21.5 121.5 C-25.71879368 127.29224172 -30.04317735 132.98676452 -34.4453125 138.640625 C-36.33239007 141.09072258 -38.14272979 143.58537047 -39.9296875 146.109375 C-40.42082031 146.79837891 -40.91195312 147.48738281 -41.41796875 148.19726562 C-42.369915 149.53841242 -43.31305469 150.88586571 -44.24609375 152.24023438 C-46.62384341 155.57973053 -47.93877922 157.30219574 -52 158 C-51.74399966 150.70399033 -49.52992042 144.85585702 -46.66796875 138.234375 C-44.83383839 133.80106711 -43.50175383 129.23608367 -42.1184082 124.64599609 C-40.03939103 117.86842734 -37.75326428 111.15871328 -35.5 104.4375 C-34.9741206 102.86496344 -34.448408 101.29237109 -33.92285156 99.71972656 C-32.8313674 96.45405044 -31.73917226 93.18861339 -30.64648438 89.92333984 C-28.26237978 82.79690961 -25.88756248 75.66738513 -23.5123291 68.53799438 C-22.25861556 64.77519754 -21.00428086 61.01260777 -19.75 57.25 C-19.27603865 55.828126 -18.80208024 54.40625103 -18.328125 52.984375 C-17.13541667 49.40625 -15.94270833 45.828125 -14.75 42.25 C-14.41202393 41.23591064 -14.07404785 40.22182129 -13.72583008 39.17700195 C-13.08803901 37.26394787 -12.44987141 35.35101926 -11.8112793 33.43823242 C-10.12133059 28.37463379 -8.44077716 23.30808658 -6.76953125 18.23828125 C-6.40053711 17.12227539 -6.03154297 16.00626953 -5.65136719 14.85644531 C-4.93992753 12.7042606 -4.23084022 10.55129647 -3.52441406 8.39746094 C-3.20827148 7.44258789 -2.89212891 6.48771484 -2.56640625 5.50390625 C-2.28740479 4.65642822 -2.00840332 3.8089502 -1.72094727 2.93579102 C-1 1 -1 1 0 0 Z " fill="#DADADA" transform="translate(204,146)"/>
<path d="M0 0 C0.99 0 1.98 0 3 0 C5.21517397 13.48914879 7.17013911 27.01316642 9.0793457 40.54833984 C10.09623323 47.74560576 11.1313732 54.93826066 12.24609375 62.12109375 C12.43695557 63.36181641 12.62781738 64.60253906 12.82446289 65.88085938 C13.18297946 68.19698771 13.54773559 70.51216158 13.91967773 72.82617188 C14.07766846 73.85162109 14.23565918 74.87707031 14.3984375 75.93359375 C14.60992432 77.2647522 14.60992432 77.2647522 14.82568359 78.62280273 C15.00811298 81.11063874 15.00970975 82.71332275 14 85 C12.26367188 85.9855957 12.26367188 85.9855957 9.96875 86.67578125 C9.10846191 86.94261719 8.24817383 87.20945312 7.36181641 87.484375 C5.94521729 87.89429687 5.94521729 87.89429687 4.5 88.3125 C3.02732666 88.75916016 3.02732666 88.75916016 1.52490234 89.21484375 C-7.8206859 92.02191111 -17.22469021 94.63432525 -26.6328125 97.22265625 C-31.0171539 98.43449419 -35.38328467 99.69572762 -39.7421875 100.99609375 C-40.83354004 101.3209375 -41.92489258 101.64578125 -43.04931641 101.98046875 C-45.13399754 102.6038059 -47.21710204 103.23244831 -49.29833984 103.8671875 C-50.23629395 104.14691406 -51.17424805 104.42664063 -52.140625 104.71484375 C-52.96079102 104.96355225 -53.78095703 105.21226074 -54.62597656 105.46850586 C-57.15394546 106.03446516 -59.41782857 106.09443468 -62 106 C-61.44075257 102.51577868 -60.61307413 99.9486617 -58.76953125 96.9453125 C-58.30305176 96.17695068 -57.83657227 95.40858887 -57.35595703 94.61694336 C-56.84661621 93.79460205 -56.33727539 92.97226074 -55.8125 92.125 C-55.2851123 91.2594751 -54.75772461 90.3939502 -54.21435547 89.50219727 C-52.48323946 86.66378401 -50.74199528 83.83174741 -49 81 C-47.14562568 77.97330312 -45.29357013 74.94521848 -43.4440918 71.91552734 C-42.26516343 69.98550879 -41.0832199 68.05732749 -39.89770508 66.13134766 C-37.1419396 61.63113633 -34.48566561 57.10800327 -31.984375 52.4609375 C-29.07512302 47.06316939 -25.8926096 41.87401113 -22.625 36.6875 C-18.84647421 30.64293066 -15.11635635 24.59047854 -11.625 18.375 C-2.93852459 2.93852459 -2.93852459 2.93852459 0 0 Z " fill="#DBDBDB" transform="translate(130,1)"/>
<path d="M0 0 C3.14833997 1.02873389 3.99509882 1.99176825 5.71875 4.88671875 C6.3235998 6.14838432 6.91643885 7.41584766 7.5 8.6875 C8.19819491 10.14434615 8.89886815 11.60000626 9.6015625 13.0546875 C9.9821582 13.84713867 10.36275391 14.63958984 10.75488281 15.45605469 C13.03824224 20.12127139 15.46242627 24.71315994 17.875 29.3125 C18.64420776 30.7826355 18.64420776 30.7826355 19.42895508 32.2824707 C20.9507423 35.18931178 22.47488674 38.09490279 24 41 C24.45197754 41.86125488 24.90395508 42.72250977 25.36962891 43.60986328 C27.84487198 48.32439168 30.32650038 53.03550717 32.81201172 57.74462891 C34.01550754 60.02944074 35.21328724 62.3171796 36.41015625 64.60546875 C41.03044849 73.44943129 41.03044849 73.44943129 46.0625 82.0625 C49.83587138 88.1942285 52.91067555 94.67985552 56.07470703 101.13916016 C57.70830864 104.42446662 59.44431614 107.65838812 61.1875 110.88671875 C62.14326252 113.37262031 62.14801207 115.35890964 62 118 C52.85559135 110.51821111 44.57593358 102.05416452 37 93 C35.34634313 91.3204243 33.6775992 89.65566194 32 88 C31.01516715 87.02584904 30.03038734 86.05164444 29.0456543 85.07739258 C28.5254924 84.56368607 28.00533051 84.04997955 27.46940613 83.52070618 C25.14742744 81.22556121 22.83082841 78.92501688 20.5144043 76.62426758 C19.28926822 75.4092823 18.06235721 74.19608435 16.83374023 72.98461914 C15.05505923 71.23006707 13.28280229 69.46924778 11.51171875 67.70703125 C10.95868576 67.16432083 10.40565277 66.62161041 9.83586121 66.06245422 C8.51873647 64.74572395 7.25379382 63.37717 6 62 C6 61.34 6 60.68 6 60 C5.46890625 59.79375 4.9378125 59.5875 4.390625 59.375 C0.99226564 57.42038808 -1.51055928 54.77876283 -4.25 52 C-4.80429688 51.4534375 -5.35859375 50.906875 -5.9296875 50.34375 C-10 46.2533867 -10 46.2533867 -10 44 C-10.66 44 -11.32 44 -12 44 C-13.52945269 40.94109462 -13.49565693 38.31007677 -13 35 C-11.9847653 31.95429591 -10.78872236 29.01094239 -9.57421875 26.0390625 C-7.19173714 20.09900828 -5.29826206 13.98073648 -3.32397461 7.89599609 C-3.03659424 7.01766113 -2.74921387 6.13932617 -2.453125 5.234375 C-2.19692383 4.44256836 -1.94072266 3.65076172 -1.67675781 2.83496094 C-1 1 -1 1 0 0 Z " fill="#D1D1D1" transform="translate(231,65)"/>
<path d="M0 0 C5.20504888 0.58750483 10.20405091 1.40738835 15.3125 2.6015625 C15.99081879 2.75862167 16.66913757 2.91568085 17.36801147 3.07749939 C18.82261556 3.41457851 20.27682067 3.75338331 21.73065186 4.09378052 C25.64398671 5.00983199 29.56029538 5.91298689 33.4765625 6.81640625 C34.27534821 7.00091843 35.07413391 7.1854306 35.89712524 7.37553406 C43.05402639 9.02363537 50.22748941 10.58940262 57.40649414 12.1378479 C73.00332631 15.5024442 88.50931293 19.17823824 104 23 C103.67 24.32 103.34 25.64 103 27 C102.12770752 27.21765015 102.12770752 27.21765015 101.23779297 27.43969727 C90.20662594 30.20989936 79.26124653 33.12278081 68.4375 36.625 C67.52734131 36.91898682 66.61718262 37.21297363 65.67944336 37.51586914 C63.92939053 38.08210491 62.17946613 38.6487378 60.4296875 39.21582031 C56.94067375 40.3418967 53.44725206 41.4397624 49.9375 42.5 C48.89464844 42.8196875 47.85179687 43.139375 46.77734375 43.46875 C43.639109 44.06903119 42.04551446 43.94683723 39 43 C36.50463867 40.99047852 36.50463867 40.99047852 33.91796875 38.37890625 C32.98662109 37.44369141 32.05527344 36.50847656 31.09570312 35.54492188 C30.61883057 35.05564209 30.14195801 34.5663623 29.65063477 34.06225586 C28.18539978 32.56034721 26.70462213 31.07522524 25.22070312 29.59179688 C18 22.28052047 18 22.28052047 18 20 C17.443125 19.773125 16.88625 19.54625 16.3125 19.3125 C13.35522777 17.63404819 11.28643878 15.46844386 9 13 C8.23429688 12.19304688 7.46859375 11.38609375 6.6796875 10.5546875 C5.85726562 9.67039062 5.03484375 8.78609375 4.1875 7.875 C3.00220703 6.60269531 3.00220703 6.60269531 1.79296875 5.3046875 C0 3 0 3 0 0 Z " fill="#D1D1D1" transform="translate(144,29)"/>
<path d="M0 0 C1.54238266 0.11583111 3.08390272 0.24316572 4.625 0.375 C5.91277344 0.47941406 5.91277344 0.47941406 7.2265625 0.5859375 C10 1 10 1 12.703125 1.9140625 C17.96176484 3.64617373 23.39478339 4.49571757 28.83203125 5.5 C29.69441406 5.665 30.55679687 5.83 31.4453125 6 C32.22406738 6.144375 33.00282227 6.28875 33.80517578 6.4375 C36.07927878 7.02031794 37.94515015 7.87693945 40 9 C33.99787179 8.51472155 28.20007404 7.73290933 22.32421875 6.40234375 C19.84126222 5.97252102 17.51495287 5.93323134 15 6 C14.855625 6.61875 14.71125 7.2375 14.5625 7.875 C14 10 14 10 13 12 C10.05997537 10.61257265 7.44533348 9.03170492 4.8125 7.125 C4.11769531 6.63257812 3.42289062 6.14015625 2.70703125 5.6328125 C0.7696606 3.77967536 0.37926876 2.61525625 0 0 Z " fill="#787878" transform="translate(0,102)"/>
<path d="M0 0 C1.65 0.33 3.3 0.66 5 1 C5 1.99 5 2.98 5 4 C4.34 4 3.68 4 3 4 C3.66 4.66 4.32 5.32 5 6 C5.99 6 6.98 6 8 6 C11.53110302 8.86401806 13.37029008 12.8324831 15 17 C15.25 20 15.25 20 15 22 C8.21623641 16.44964797 2.14477032 10.23557973 -4 4 C-3.67 3.34 -3.34 2.68 -3 2 C-1.515 2.99 -1.515 2.99 0 4 C0 2.68 0 1.36 0 0 Z " fill="#656565" transform="translate(278,161)"/>
<path d="M0 0 C0.9075 0.639375 1.815 1.27875 2.75 1.9375 C5.39221381 3.61428953 6.9898499 4.53689998 10 5 C9.01 6.32 8.02 7.64 7 9 C7.99 10.485 7.99 10.485 9 12 C5.41486894 10.37815499 2.41007677 8.20743761 -0.75 5.875 C-1.73484375 5.15054688 -2.7196875 4.42609375 -3.734375 3.6796875 C-4.48203125 3.12539062 -5.2296875 2.57109375 -6 2 C-5.01 2 -4.02 2 -3 2 C-2.01 1.34 -1.02 0.68 0 0 Z " fill="#B1B1B1" transform="translate(60,143)"/>
<path d="M0 0 C2.69082872 0.17635452 5.32851446 0.61835921 8 1 C8 1.33 8 1.66 8 2 C5.69 2.33 3.38 2.66 1 3 C0.34 6.3 -0.32 9.6 -1 13 C-1.99 13.33 -2.98 13.66 -4 14 C-4.33 15.65 -4.66 17.3 -5 19 C-6.35069977 14.94790069 -4.98839952 12.23313056 -3.625 8.375 C-3.39039063 7.68148437 -3.15578125 6.98796875 -2.9140625 6.2734375 C-1.15438988 1.15438988 -1.15438988 1.15438988 0 0 Z " fill="#757575" transform="translate(204,146)"/>
<path d="M0 0 C5.7809725 0.63065155 11.3443706 1.65155132 17 3 C17 3.33 17 3.66 17 4 C13.04 3.67 9.08 3.34 5 3 C5.33 4.65 5.66 6.3 6 8 C5.34 8 4.68 8 4 8 C0 3.64705882 0 3.64705882 0 0 Z " fill="#626262" transform="translate(144,29)"/>
<path d="M0 0 C0 3 0 3 -1 4.75 C-2.38608984 7.86870213 -2.12959746 10.63046612 -2 14 C-3.1446875 14.1546875 -3.1446875 14.1546875 -4.3125 14.3125 C-7.17059424 15.04364039 -8.15742885 15.76951913 -10 18 C-8.5216233 13.98832453 -6.60821705 10.42979591 -4.4375 6.75 C-3.81746094 5.69296875 -3.19742188 4.6359375 -2.55859375 3.546875 C-1 1 -1 1 0 0 Z " fill="#636363" transform="translate(82,81)"/>
<path d="M0 0 C-3.80283823 2.10938683 -7.87395111 3.37568554 -12 4.6875 C-13.06734375 5.04424805 -13.06734375 5.04424805 -14.15625 5.40820312 C-17.87634409 6.59155395 -20.27904269 7.17566198 -24 6 C-16.98671758 1.79203055 -8.15465359 -0.31889707 0 0 Z " fill="#474747" transform="translate(104,97)"/>
<path d="M0 0 C3.64775386 3.88309282 4.58525633 6.71201818 5 12 C0.68393782 9.09326425 0.68393782 9.09326425 -1 7 C-0.875 3.1875 -0.875 3.1875 0 0 Z " fill="#909093" transform="translate(287,168)"/>
<path d="M0 0 C1 2 1 2 1 5 C3.64 5 6.28 5 9 5 C5.96474514 7.02350324 4.80573798 7.32124018 1.3125 7.625 C0.50425781 7.69976562 -0.30398437 7.77453125 -1.13671875 7.8515625 C-2.05904297 7.92503906 -2.05904297 7.92503906 -3 8 C-2.45276317 4.62537285 -1.9451 2.91765 0 0 Z " fill="#474747" transform="translate(71,99)"/>
<path d="M0 0 C-3.68734758 2.45823172 -6.69699971 3.01242616 -11 4 C-11 3.01 -11 2.02 -11 1 C-7.2297564 -1.56376565 -4.32597804 -0.83191885 0 0 Z " fill="#E2E2E2" transform="translate(247,53)"/>
<path d="M0 0 C1.6875 2.375 1.6875 2.375 3 5 C2.67 5.66 2.34 6.32 2 7 C-0.62187494 5.95125002 -1.79371361 5.35068687 -3.25 2.875 C-3.4975 2.25625 -3.745 1.6375 -4 1 C-2 0 -2 0 0 0 Z " fill="#A2A2A2" transform="translate(160,42)"/>
<path d="M0 0 C0 3.9478088 -1.33724565 5.18508826 -4 8 C-4.99 8 -5.98 8 -7 8 C-6.67 5.69 -6.34 3.38 -6 1 C-5.34 2.32 -4.68 3.64 -4 5 C-2.68 3.35 -1.36 1.7 0 0 Z " fill="#434343" transform="translate(159,296)"/>
<path d="M0 0 C0.185625 0.9590625 0.185625 0.9590625 0.375 1.9375 C0.684375 2.9584375 0.684375 2.9584375 1 4 C1.66 4.33 2.32 4.66 3 5 C1.25 9.875 1.25 9.875 -1 11 C-2.23076923 4.6 -2.23076923 4.6 -1.0625 1.5625 C-0.711875 1.046875 -0.36125 0.53125 0 0 Z " fill="#959595" transform="translate(155,291)"/>
<path d="M0 0 C0.12375 0.763125 0.2475 1.52625 0.375 2.3125 C0.88102792 5.20267136 0.88102792 5.20267136 3 8 C-0.81684226 6.44499019 -3.19195732 3.96404505 -6 1 C-3 0 -3 0 0 0 Z " fill="#7C7C7C" transform="translate(154,212)"/>
<path d="M0 0 C0.99 0.99 1.98 1.98 3 3 C2.34 3 1.68 3 1 3 C1 3.99 1 4.98 1 6 C-2.65316671 4.75023244 -3.78065836 4.32901247 -6 1 C-5.38125 1.20625 -4.7625 1.4125 -4.125 1.625 C-3.073125 1.810625 -3.073125 1.810625 -2 2 C-1.34 1.34 -0.68 0.68 0 0 Z " fill="#919191" transform="translate(60,143)"/>
<path d="M0 0 C1.32 0 2.64 0 4 0 C4.33 1.65 4.66 3.3 5 5 C4.01 5 3.02 5 2 5 C1.34 4.34 0.68 3.68 0 3 C0 2.01 0 1.02 0 0 Z " fill="#E6E6E6" transform="translate(236,121)"/>
<path d="M0 0 C1.98 0 3.96 0 6 0 C5.01 1.485 5.01 1.485 4 3 C3.31822584 4.32567199 2.64808564 5.65753688 2 7 C0 4 0 4 0 0 Z " fill="#D0D0D0" transform="translate(149,32)"/>
<path d="M0 0 C2 1 2 1 3.125 4.0625 C3.41375 5.031875 3.7025 6.00125 4 7 C3.34 6.67 2.68 6.34 2 6 C1.34 6.66 0.68 7.32 0 8 C-0.66 7.67 -1.32 7.34 -2 7 C-2 6.01 -2 5.02 -2 4 C-1.34 4 -0.68 4 0 4 C0 2.68 0 1.36 0 0 Z " fill="#989898" transform="translate(283,161)"/>
<path d="M0 0 C2.69082872 0.17635452 5.32851446 0.61835921 8 1 C8 1.33 8 1.66 8 2 C6.906875 2.103125 5.81375 2.20625 4.6875 2.3125 C1.14440371 2.97307727 0.06756277 3.2027092 -2 6 C-1.125 1.125 -1.125 1.125 0 0 Z " fill="#464646" transform="translate(204,146)"/>
<path d="M0 0 C0.33 0.66 0.66 1.32 1 2 C2.32 1.67 3.64 1.34 5 1 C3.75023244 4.65316671 3.32901247 5.78065836 0 8 C0 5.36 0 2.72 0 0 Z " fill="#808080" transform="translate(240,181)"/>
<path d="M0 0 C2 0 4 0 6 0 C6.66 1.98 7.32 3.96 8 6 C4.63408134 4.55746343 2.48952921 2.66735273 0 0 Z " fill="#666666" transform="translate(118,191)"/>
<path d="M0 0 C2.475 0.495 2.475 0.495 5 1 C5 1.99 5 2.98 5 4 C3.35 4.66 1.7 5.32 0 6 C0 4.02 0 2.04 0 0 Z " fill="#EBEBEB" transform="translate(278,161)"/>
<path d="M0 0 C0.66 1.32 1.32 2.64 2 4 C1.01 4.495 1.01 4.495 0 5 C0 5.66 0 6.32 0 7 C-0.99 7 -1.98 7 -3 7 C-2.38722388 4.03824877 -1.74627478 2.61941217 0 0 Z " fill="#7A7A7A" transform="translate(86,74)"/>
<path d="M0 0 C0.66 0.33 1.32 0.66 2 1 C2.625 3.5625 2.625 3.5625 3 6 C1.68 6 0.36 6 -1 6 C-1.33 5.34 -1.66 4.68 -2 4 C-1.34 4 -0.68 4 0 4 C0 2.68 0 1.36 0 0 Z " fill="#DFDFDF" transform="translate(285,167)"/>
<path d="M0 0 C2.64 0.33 5.28 0.66 8 1 C7.67 1.99 7.34 2.98 7 4 C3.73045798 3.43628586 2.17424117 2.50037734 0 0 Z " fill="#DCDCDC" transform="translate(0,103)"/>
<path d="" fill="#000000" transform="translate(0,0)"/>
<path d="" fill="#000000" transform="translate(0,0)"/>
<path d="" fill="#000000" transform="translate(0,0)"/>
<path d="" fill="#000000" transform="translate(0,0)"/>
<path d="" fill="#000000" transform="translate(0,0)"/>
<path d="" fill="#000000" transform="translate(0,0)"/>
<path d="" fill="#000000" transform="translate(0,0)"/>
<path d="" fill="#000000" transform="translate(0,0)"/>
<path d="" fill="#000000" transform="translate(0,0)"/>
<path d="" fill="#000000" transform="translate(0,0)"/>
<path d="" fill="#000000" transform="translate(0,0)"/>
<path d="" fill="#000000" transform="translate(0,0)"/>
<path d="" fill="#000000" transform="translate(0,0)"/>
<path d="" fill="#000000" transform="translate(0,0)"/>
<path d="" fill="#000000" transform="translate(0,0)"/>
<path d="" fill="#000000" transform="translate(0,0)"/>
<path d="" fill="#000000" transform="translate(0,0)"/>
<path d="" fill="#000000" transform="translate(0,0)"/>
<path d="" fill="#000000" transform="translate(0,0)"/>
<path d="" fill="#000000" transform="translate(0,0)"/>
<path d="" fill="#000000" transform="translate(0,0)"/>
<path d="" fill="#000000" transform="translate(0,0)"/>
<path d="" fill="#000000" transform="translate(0,0)"/>
<path d="" fill="#000000" transform="translate(0,0)"/>
<path d="" fill="#000000" transform="translate(0,0)"/>
<path d="" fill="#000000" transform="translate(0,0)"/>
<path d="" fill="#000000" transform="translate(0,0)"/>
<path d="" fill="#000000" transform="translate(0,0)"/>
</svg>
