<?xml version="1.0" encoding="UTF-8"?>
<svg version="1.1" xmlns="http://www.w3.org/2000/svg" width="500" height="500">
<path d="M0 0 C1.87561967 0.11532936 3.75049841 0.2427359 5.625 0.375 C6.66914062 0.44460937 7.71328125 0.51421875 8.7890625 0.5859375 C12.09738032 1.01255756 14.84845163 1.92453412 18 3 C20.78946517 3.59936573 23.5723196 4.15921124 26.375 4.6875 C35.57035871 6.47524311 44.72570774 8.42988387 53.875 10.4375 C54.91155731 10.66469727 54.91155731 10.66469727 55.96905518 10.89648438 C64.57260724 12.78412001 73.16584698 14.7133626 81.75 16.6875 C88.19061335 18.16792534 94.63832867 19.54970489 101.125 20.8125 C110.22880883 22.59561192 119.29681571 24.53923358 128.35809326 26.52572632 C129.98145709 26.88075263 131.60535368 27.23335241 133.22979736 27.58340454 C135.53629349 28.08120027 137.84056907 28.58827745 140.14453125 29.09765625 C140.83238205 29.24446838 141.52023285 29.39128052 142.22892761 29.5425415 C146.80788349 30.56921228 150.85391395 31.83020514 155 34 C156.05517578 35.75634766 156.05517578 35.75634766 156.3203125 37.7890625 C156.44051758 38.58860352 156.56072266 39.38814453 156.68457031 40.21191406 C156.84070801 41.5920166 156.84070801 41.5920166 157 43 C157.14791992 44.05670898 157.29583984 45.11341797 157.44824219 46.20214844 C157.95874351 49.92269867 158.4199146 53.64728117 158.875 57.375 C159.22029984 60.14369649 159.57011537 62.91180476 159.921875 65.6796875 C160.0103067 66.37604309 160.0987384 67.07239868 160.18984985 67.78985596 C161.07642464 74.70692869 162.08646907 81.6041938 163.125 88.5 C163.29209473 89.6132666 163.45918945 90.7265332 163.63134766 91.87353516 C163.9464711 93.97235228 164.26172981 96.0711491 164.57714844 98.16992188 C165.15351687 102.02746397 165.71581922 105.88639076 166.25 109.75 C166.39953125 110.81734375 166.5490625 111.8846875 166.703125 112.984375 C167.03337084 116.33897751 167.05078395 119.631331 167 123 C162.49831545 122.09746327 159.49514603 119.57659793 155.9375 116.8125 C154.49673261 115.71270424 153.05529849 114.61378149 151.61328125 113.515625 C150.85869629 112.93876953 150.10411133 112.36191406 149.32666016 111.76757812 C145.45521478 108.82641711 141.54135399 105.9434498 137.625 103.0625 C136.82900391 102.47645996 136.03300781 101.89041992 135.21289062 101.28662109 C127.58671664 95.68086003 119.91541092 90.13844091 112.23388672 84.60888672 C109.98930216 82.99229522 107.74629386 81.37354356 105.50390625 79.75390625 C104.75939209 79.21620605 104.01487793 78.67850586 103.24780273 78.12451172 C101.76110201 77.05005678 100.27492768 75.97487308 98.78930664 74.89892578 C94.82953094 72.03310946 90.85745359 69.18652601 86.8671875 66.36328125 C86.031875 65.76902344 85.1965625 65.17476563 84.3359375 64.5625 C82.72255382 63.41520494 81.10547814 62.27308026 79.484375 61.13671875 C78.40542969 60.36714844 78.40542969 60.36714844 77.3046875 59.58203125 C76.66515137 59.13061768 76.02561523 58.6792041 75.36669922 58.21411133 C74.91568848 57.81345459 74.46467773 57.41279785 74 57 C74 56.34 74 55.68 74 55 C73.29230469 54.75894531 72.58460938 54.51789063 71.85546875 54.26953125 C68.55178464 52.80072504 66.138392 50.94451962 63.3125 48.6875 C58.00933524 44.51100644 52.60888623 40.49855745 47.125 36.5625 C45.5754707 35.44928852 44.02599134 34.33600755 42.4765625 33.22265625 C41.72149414 32.68012207 40.96642578 32.13758789 40.18847656 31.57861328 C36.94453283 29.23866012 33.72119071 26.87113013 30.5 24.5 C24.058202 19.75894889 17.57613694 15.07504 11.07617188 10.4140625 C2.72468179 4.40698174 2.72468179 4.40698174 0 2 C0 1.34 0 0.68 0 0 Z " fill="#DEDEDE" transform="translate(80,198)"/>
<path d="M0 0 C6.45639072 0.56858134 12.73082214 1.89952459 19.0625 3.25 C20.61360474 3.57834839 20.61360474 3.57834839 22.19604492 3.91333008 C24.36344839 4.3731221 26.53051796 4.83449068 28.69726562 5.29736328 C31.98904875 5.99767019 35.28330228 6.68524676 38.578125 7.37109375 C40.65634977 7.80942305 42.73447842 8.24820839 44.8125 8.6875 C45.79033447 8.88956055 46.76816895 9.09162109 47.77563477 9.29980469 C48.68112061 9.49348633 49.58660645 9.68716797 50.51953125 9.88671875 C51.31464111 10.05389404 52.10975098 10.22106934 52.92895508 10.39331055 C55 11 55 11 58 13 C56.54997977 17.10839064 54.6020866 20.50344613 52 24 C51.34 24 50.68 24 50 24 C49.74347656 24.73089844 49.48695313 25.46179688 49.22265625 26.21484375 C47.94085523 29.13472914 46.4800707 31.12379437 44.4375 33.5625 C39.77480188 39.24358525 35.38843389 45.10587931 31 51 C29.60456173 52.85446401 28.2087227 54.70862652 26.8125 56.5625 C22.68605573 62.06686882 18.58850344 67.59239925 14.5 73.125 C13.56377808 74.38872437 13.56377808 74.38872437 12.60864258 75.67797852 C12.02622803 76.46744873 11.44381348 77.25691895 10.84375 78.0703125 C10.31974609 78.77945801 9.79574219 79.48860352 9.25585938 80.21923828 C7.94763144 81.97972366 7.94763144 81.97972366 7 84 C6.34 84 5.68 84 5 84 C4.773125 84.680625 4.54625 85.36125 4.3125 86.0625 C2.68773854 89.6988709 0.67196743 93.02829263 -2 96 C-2.66 96 -3.32 96 -4 96 C-4.23847656 96.70382812 -4.47695313 97.40765625 -4.72265625 98.1328125 C-6.22237619 101.49915634 -8.14343988 103.98999 -10.4375 106.875 C-11.34401388 108.02741574 -12.24890075 109.18111276 -13.15234375 110.3359375 C-13.62140137 110.9350293 -14.09045898 111.53412109 -14.57373047 112.15136719 C-16.94354951 115.22296421 -19.21986545 118.36157616 -21.5 121.5 C-24.90904203 126.18385186 -28.37648466 130.80550512 -31.9375 135.375 C-34.78988396 139.04104477 -37.5389283 142.73865327 -40.1875 146.5546875 C-40.72769775 147.33279785 -41.26789551 148.1109082 -41.82446289 148.91259766 C-42.88293128 150.44639157 -43.93445833 151.98500381 -44.97827148 153.52880859 C-45.69865601 154.57415771 -45.69865601 154.57415771 -46.43359375 155.640625 C-46.85697021 156.26485352 -47.28034668 156.88908203 -47.71655273 157.53222656 C-49 159 -49 159 -52 160 C-52.27532209 154.65186839 -51.40879349 150.49540469 -49.5 145.5625 C-48.93920781 144.04377872 -48.38074243 142.52419688 -47.82421875 141.00390625 C-47.52563965 140.19324707 -47.22706055 139.38258789 -46.91943359 138.54736328 C-45.29971452 134.05980386 -43.81017858 129.52945344 -42.3125 125 C-41.62637151 122.93096656 -40.94017064 120.86195712 -40.25390625 118.79296875 C-39.89184082 117.70032715 -39.52977539 116.60768555 -39.15673828 115.48193359 C-37.93177753 111.79464144 -36.69924074 108.10992128 -35.46484375 104.42578125 C-30.50101885 89.60059415 -25.61264322 74.75403743 -20.8125 59.875 C-16.9382791 47.86704036 -12.95563809 35.90991359 -8.75390625 24.01171875 C-6.68434365 18.14204065 -4.73281304 12.23390996 -2.81298828 6.3137207 C-1.10617564 1.10617564 -1.10617564 1.10617564 0 0 Z " fill="#DCDCDC" transform="translate(286,242)"/>
<path d="M0 0 C0.99 0 1.98 0 3 0 C5.21517397 13.48914879 7.17013911 27.01316642 9.0793457 40.54833984 C10.09623323 47.74560576 11.1313732 54.93826066 12.24609375 62.12109375 C12.43695557 63.36181641 12.62781738 64.60253906 12.82446289 65.88085938 C13.18297946 68.19698771 13.54773559 70.51216158 13.91967773 72.82617188 C14.07766846 73.85162109 14.23565918 74.87707031 14.3984375 75.93359375 C14.60992432 77.2647522 14.60992432 77.2647522 14.82568359 78.62280273 C15.00811298 81.11063874 15.00970975 82.71332275 14 85 C12.26367188 85.9855957 12.26367188 85.9855957 9.96875 86.67578125 C9.10846191 86.94261719 8.24817383 87.20945312 7.36181641 87.484375 C5.94521729 87.89429688 5.94521729 87.89429688 4.5 88.3125 C3.02732666 88.75916016 3.02732666 88.75916016 1.52490234 89.21484375 C-7.8206859 92.02191111 -17.22469021 94.63432525 -26.6328125 97.22265625 C-31.0171539 98.43449419 -35.38328467 99.69572762 -39.7421875 100.99609375 C-40.83354004 101.3209375 -41.92489258 101.64578125 -43.04931641 101.98046875 C-45.13399754 102.6038059 -47.21710204 103.23244831 -49.29833984 103.8671875 C-50.23629395 104.14691406 -51.17424805 104.42664063 -52.140625 104.71484375 C-52.96079102 104.96355225 -53.78095703 105.21226074 -54.62597656 105.46850586 C-57.15394546 106.03446516 -59.41782857 106.09443468 -62 106 C-61.44075257 102.51577868 -60.61307413 99.9486617 -58.76953125 96.9453125 C-58.30305176 96.17695068 -57.83657227 95.40858887 -57.35595703 94.61694336 C-56.84661621 93.79460205 -56.33727539 92.97226074 -55.8125 92.125 C-55.2851123 91.2594751 -54.75772461 90.3939502 -54.21435547 89.50219727 C-52.48323946 86.66378401 -50.74199528 83.83174741 -49 81 C-47.14562568 77.97330312 -45.29357013 74.94521848 -43.4440918 71.91552734 C-42.26516343 69.98550879 -41.0832199 68.05732749 -39.89770508 66.13134766 C-37.1419396 61.63113633 -34.48566561 57.10800327 -31.984375 52.4609375 C-29.07512302 47.06316939 -25.8926096 41.87401113 -22.625 36.6875 C-18.84647421 30.64293066 -15.11635635 24.59047854 -11.625 18.375 C-2.93852459 2.93852459 -2.93852459 2.93852459 0 0 Z " fill="#DDDDDD" transform="translate(212,97)"/>
<path d="M0 0 C3.14833997 1.02873389 3.99509882 1.99176825 5.71875 4.88671875 C6.3235998 6.14838432 6.91643885 7.41584766 7.5 8.6875 C8.19819491 10.14434615 8.89886815 11.60000626 9.6015625 13.0546875 C9.9821582 13.84713867 10.36275391 14.63958984 10.75488281 15.45605469 C13.03824224 20.12127139 15.46242627 24.71315994 17.875 29.3125 C18.64420776 30.7826355 18.64420776 30.7826355 19.42895508 32.2824707 C20.9507423 35.18931178 22.47488674 38.09490279 24 41 C24.45197754 41.86125488 24.90395508 42.72250977 25.36962891 43.60986328 C27.84487198 48.32439168 30.32650038 53.03550717 32.81201172 57.74462891 C34.01550754 60.02944074 35.21328724 62.3171796 36.41015625 64.60546875 C41.03044849 73.44943129 41.03044849 73.44943129 46.0625 82.0625 C49.03829056 86.89300766 51.52783504 91.92936216 54.01953125 97.02075195 C56.49476651 102.06416372 59.18244938 106.94155169 62.06640625 111.765625 C63.14451422 114.34586667 62.98413447 115.43064293 62 118 C52.85559135 110.51821111 44.57593358 102.05416452 37 93 C35.34634313 91.3204243 33.6775992 89.65566194 32 88 C31.01516715 87.02584904 30.03038734 86.05164444 29.0456543 85.07739258 C28.5254924 84.56368607 28.00533051 84.04997955 27.46940613 83.52070618 C25.14742744 81.22556121 22.83082841 78.92501688 20.5144043 76.62426758 C19.28926822 75.4092823 18.06235721 74.19608435 16.83374023 72.98461914 C15.05505923 71.23006707 13.28280229 69.46924778 11.51171875 67.70703125 C10.95868576 67.16432083 10.40565277 66.62161041 9.83586121 66.06245422 C8.51873647 64.74572395 7.25379382 63.37717 6 62 C6 61.34 6 60.68 6 60 C5.46890625 59.79375 4.9378125 59.5875 4.390625 59.375 C0.99226564 57.42038808 -1.51055928 54.77876283 -4.25 52 C-4.80429687 51.4534375 -5.35859375 50.906875 -5.9296875 50.34375 C-10 46.2533867 -10 46.2533867 -10 44 C-10.66 44 -11.32 44 -12 44 C-13.52945269 40.94109462 -13.49565693 38.31007677 -13 35 C-11.9847653 31.95429591 -10.78872236 29.01094239 -9.57421875 26.0390625 C-7.19173714 20.09900828 -5.29826206 13.98073648 -3.32397461 7.89599609 C-3.03659424 7.01766113 -2.74921387 6.13932617 -2.453125 5.234375 C-2.19692383 4.44256836 -1.94072266 3.65076172 -1.67675781 2.83496094 C-1 1 -1 1 0 0 Z " fill="#D1D1D1" transform="translate(313,161)"/>
<path d="M0 0 C5.20504888 0.58750483 10.20405091 1.40738835 15.3125 2.6015625 C15.99081879 2.75862167 16.66913757 2.91568085 17.36801147 3.07749939 C18.82261556 3.41457851 20.27682067 3.75338331 21.73065186 4.09378052 C25.64398671 5.00983199 29.56029538 5.91298689 33.4765625 6.81640625 C34.27534821 7.00091843 35.07413391 7.1854306 35.89712524 7.37553406 C43.05402639 9.02363537 50.22748941 10.58940262 57.40649414 12.1378479 C73.00332631 15.5024442 88.50931293 19.17823824 104 23 C103.67 24.32 103.34 25.64 103 27 C102.12770752 27.21765015 102.12770752 27.21765015 101.23779297 27.43969727 C90.20662594 30.20989936 79.26124653 33.12278081 68.4375 36.625 C67.52734131 36.91898682 66.61718262 37.21297363 65.67944336 37.51586914 C63.92939053 38.08210491 62.17946613 38.6487378 60.4296875 39.21582031 C56.94067375 40.3418967 53.44725206 41.4397624 49.9375 42.5 C48.89464844 42.8196875 47.85179687 43.139375 46.77734375 43.46875 C43.639109 44.06903119 42.04551446 43.94683723 39 43 C36.50463867 40.99047852 36.50463867 40.99047852 33.91796875 38.37890625 C32.98662109 37.44369141 32.05527344 36.50847656 31.09570312 35.54492188 C30.61883057 35.05564209 30.14195801 34.5663623 29.65063477 34.06225586 C28.18539978 32.56034721 26.70462213 31.07522524 25.22070312 29.59179688 C18 22.28052047 18 22.28052047 18 20 C17.443125 19.773125 16.88625 19.54625 16.3125 19.3125 C13.35522777 17.63404819 11.28643878 15.46844386 9 13 C8.23429688 12.19304687 7.46859375 11.38609375 6.6796875 10.5546875 C5.85726562 9.67039063 5.03484375 8.78609375 4.1875 7.875 C3.00220703 6.60269531 3.00220703 6.60269531 1.79296875 5.3046875 C0 3 0 3 0 0 Z " fill="#D6D6D6" transform="translate(226,125)"/>
<path d="M0 0 C1.87561967 0.11532936 3.75049841 0.2427359 5.625 0.375 C6.66914062 0.44460937 7.71328125 0.51421875 8.7890625 0.5859375 C12.10259184 1.01322961 14.83636459 1.93781323 18 3 C22.25524107 3.94287615 26.54649299 4.70844315 30.83203125 5.5 C31.69441406 5.665 32.55679688 5.83 33.4453125 6 C34.22406738 6.144375 35.00282227 6.28875 35.80517578 6.4375 C38.07927878 7.02031794 39.94515015 7.87693945 42 9 C35.99787179 8.51472155 30.20007404 7.73290933 24.32421875 6.40234375 C21.84126222 5.97252102 19.51495287 5.93323134 17 6 C16.855625 6.61875 16.71125 7.2375 16.5625 7.875 C16 10 16 10 15 12 C11.45493808 10.37940026 8.40978743 8.27370948 5.25 6 C4.26515625 5.29875 3.2803125 4.5975 2.265625 3.875 C1.51796875 3.25625 0.7703125 2.6375 0 2 C0 1.34 0 0.68 0 0 Z " fill="#757575" transform="translate(80,198)"/>
<path d="M0 0 C1.65 0.33 3.3 0.66 5 1 C5 1.99 5 2.98 5 4 C4.34 4 3.68 4 3 4 C4.2488427 5.5833253 4.2488427 5.5833253 6 7 C7.32 7 8.64 7 10 7 C11.03572896 8.74122549 12.0531252 10.49336595 13.0625 12.25 C13.63097656 13.22453125 14.19945312 14.1990625 14.78515625 15.203125 C16 18 16 18 15.68359375 20.359375 C15.45800781 20.90078125 15.23242188 21.4421875 15 22 C8.21623641 16.44964797 2.14477032 10.23557973 -4 4 C-3.67 3.34 -3.34 2.68 -3 2 C-1.515 2.99 -1.515 2.99 0 4 C0 2.68 0 1.36 0 0 Z " fill="#E3E3E3" transform="translate(360,257)"/>
<path d="M0 0 C0 3 0 3 -1 4.75 C-2.38608984 7.86870213 -2.12959746 10.63046612 -2 14 C-3.65 14.33 -5.3 14.66 -7 15 C-7.309375 15.94875 -7.61875 16.8975 -7.9375 17.875 C-9 21 -9 21 -10 23 C-7.36 23 -4.72 23 -2 23 C-5.03525486 25.02350324 -6.19426202 25.32124018 -9.6875 25.625 C-10.49574219 25.69976562 -11.30398437 25.77453125 -12.13671875 25.8515625 C-13.05904297 25.92503906 -13.05904297 25.92503906 -14 26 C-13.4218057 22.17201364 -12.32331895 19.46914308 -10.3125 16.171875 C-9.77882812 15.29015625 -9.24515625 14.4084375 -8.6953125 13.5 C-8.13585937 12.5925 -7.57640625 11.685 -7 10.75 C-6.44054687 9.82703125 -5.88109375 8.9040625 -5.3046875 7.953125 C-1.18268327 1.18268327 -1.18268327 1.18268327 0 0 Z " fill="#636363" transform="translate(164,177)"/>
<path d="M0 0 C2.69082872 0.17635452 5.32851446 0.61835921 8 1 C8 1.33 8 1.66 8 2 C5.69 2.33 3.38 2.66 1 3 C0.34 6.3 -0.32 9.6 -1 13 C-1.99 13.33 -2.98 13.66 -4 14 C-3.9175 15.19625 -3.835 16.3925 -3.75 17.625 C-3.7170865 22.24934637 -5.15386254 24.44232818 -8 28 C-9.22850098 24.31449705 -8.6153015 23.12068743 -7.3828125 19.4921875 C-7.02316406 18.42355469 -6.66351563 17.35492188 -6.29296875 16.25390625 C-5.90753906 15.13886719 -5.52210938 14.02382813 -5.125 12.875 C-4.74730469 11.75222656 -4.36960937 10.62945312 -3.98046875 9.47265625 C-1.15390339 1.15390339 -1.15390339 1.15390339 0 0 Z " fill="#747474" transform="translate(286,242)"/>
<path d="M0 0 C8.96452064 0.43098657 17.37352947 2.69889434 26 5 C25.67 6.32 25.34 7.64 25 9 C23.25364835 9.53293835 21.50272348 10.05090663 19.75 10.5625 C18.77546875 10.85253906 17.8009375 11.14257812 16.796875 11.44140625 C14 12 14 12 10 11 C13.96 9.68 17.92 8.36 22 7 C18.54574193 5.27287097 17.37241674 4.77648407 13.8125 4.5625 C8.91343409 4.1230489 4.58593805 2.72379232 0 1 C0 0.67 0 0.34 0 0 Z " fill="#373737" transform="translate(304,143)"/>
<path d="M0 0 C0.99 0 1.98 0 3 0 C3.8723412 2.99480917 4.10829766 5.63575911 4.0625 8.75 C4.05347656 9.54921875 4.04445312 10.3484375 4.03515625 11.171875 C4.02355469 11.77515625 4.01195312 12.3784375 4 13 C2.5 11.75 2.5 11.75 1 10 C1 8.68 1 7.36 1 6 C-0.32 6 -1.64 6 -3 6 C-3.66 7.65 -4.32 9.3 -5 11 C-5.33 10.34 -5.66 9.68 -6 9 C-5.07544441 7.491987 -4.1349253 5.99375083 -3.1875 4.5 C-2.66542969 3.6646875 -2.14335937 2.829375 -1.60546875 1.96875 C-1.07566406 1.3190625 -0.54585937 0.669375 0 0 Z " fill="#6C6C6C" transform="translate(212,97)"/>
<path d="M0 0 C0.82638376 2.89234315 1 4.88742431 1 8 C2.32 7.01 3.64 6.02 5 5 C3.60766379 9.43016067 1.43701135 11.91550263 -2 15 C-2.33 15 -2.66 15 -3 15 C-3.36263859 9.1977825 -2.25684543 5.36000789 0 0 Z " fill="#4D4D4D" transform="translate(237,387)"/>
<path d="M0 0 C5.28548694 4.36627182 10.04332405 9.05182253 14.765625 14.0234375 C16.8773053 16.33128694 16.8773053 16.33128694 20 16 C19.67 17.32 19.34 18.64 19 20 C14.28619206 16.14324805 9.89174933 12.0281064 5.5625 7.75 C5.01819336 7.21858398 4.47388672 6.68716797 3.91308594 6.13964844 C2.56872207 4.79870752 1.27925552 3.40318996 0 2 C0 1.34 0 0.68 0 0 Z " fill="#2B2B2B" transform="translate(356,259)"/>
<path d="M0 0 C5.7809725 0.63065155 11.3443706 1.65155132 17 3 C17 3.33 17 3.66 17 4 C13.04 3.67 9.08 3.34 5 3 C5.33 4.65 5.66 6.3 6 8 C5.34 8 4.68 8 4 8 C0 3.64705882 0 3.64705882 0 0 Z " fill="#626262" transform="translate(226,125)"/>
<path d="M0 0 C2 1 2 1 2.875 2.9375 C3.81280927 5.14989434 3.81280927 5.14989434 5.9375 5.875 C8.96000056 7.52363667 9.66261741 9.92402005 11 13 C6.95197541 13 6.08620154 11.55007158 3.25 8.75 C2.43015625 7.96109375 1.6103125 7.1721875 0.765625 6.359375 C-1 4 -1 4 -0.765625 1.703125 C-0.38664062 0.86007813 -0.38664062 0.86007813 0 0 Z " fill="#E6E6E6" transform="translate(306,203)"/>
<path d="M0 0 C-0.20625 0.763125 -0.4125 1.52625 -0.625 2.3125 C-1.33391203 5.21885944 -1.33391203 5.21885944 1 8 C-3.04420651 6.22054913 -6.46078487 3.60470327 -10 1 C-9.01 0.67 -8.02 0.34 -7 0 C-4.3333581 -1.33332095 -2.83319697 -0.67102033 0 0 Z " fill="#999999" transform="translate(150,243)"/>
<path d="M0 0 C-3.80283823 2.10938683 -7.87395111 3.37568554 -12 4.6875 C-13.06734375 5.04424805 -13.06734375 5.04424805 -14.15625 5.40820312 C-17.87634409 6.59155395 -20.27904269 7.17566198 -24 6 C-16.98671758 1.79203055 -8.15465359 -0.31889707 0 0 Z " fill="#474747" transform="translate(186,193)"/>
<path d="M0 0 C3.64775386 3.88309282 4.58525633 6.71201818 5 12 C0.68393782 9.09326425 0.68393782 9.09326425 -1 7 C-0.875 3.1875 -0.875 3.1875 0 0 Z " fill="#919193" transform="translate(369,264)"/>
<path d="M0 0 C-3.68734758 2.45823172 -6.69699971 3.01242616 -11 4 C-11 3.01 -11 2.02 -11 1 C-7.2297564 -1.56376565 -4.32597804 -0.83191885 0 0 Z " fill="#E3E3E3" transform="translate(329,149)"/>
<path d="M0 0 C1.6875 2.375 1.6875 2.375 3 5 C2.67 5.66 2.34 6.32 2 7 C-0.62187494 5.95125002 -1.79371361 5.35068687 -3.25 2.875 C-3.4975 2.25625 -3.745 1.6375 -4 1 C-2 0 -2 0 0 0 Z " fill="#A2A2A2" transform="translate(242,138)"/>
<path d="M0 0 C2.475 0.495 2.475 0.495 5 1 C5 1.99 5 2.98 5 4 C4.34 4 3.68 4 3 4 C3.33 5.32 3.66 6.64 4 8 C3.01 7.67 2.02 7.34 1 7 C0.67 4.69 0.34 2.38 0 0 Z " fill="#EAEAEA" transform="translate(360,257)"/>
<path d="M0 0 C1.125 3.75 1.125 3.75 0 6 C0.99 5.67 1.98 5.34 3 5 C3 5.99 3 6.98 3 8 C1.68 8 0.36 8 -1 8 C-1.66 9.32 -2.32 10.64 -3 12 C-2.40075776 7.80530429 -1.42500059 3.99000166 0 0 Z " fill="#6E6E6E" transform="translate(274,276)"/>
<path d="M0 0 C2 1 2 1 3.125 4.0625 C3.41375 5.031875 3.7025 6.00125 4 7 C0.25 8.125 0.25 8.125 -2 7 C-2 6.01 -2 5.02 -2 4 C-1.34 4 -0.68 4 0 4 C0 2.68 0 1.36 0 0 Z " fill="#A2A2A2" transform="translate(365,257)"/>
<path d="M0 0 C0.12375 0.763125 0.2475 1.52625 0.375 2.3125 C0.88102792 5.20267136 0.88102792 5.20267136 3 8 C-0.81684226 6.44499019 -3.19195732 3.96404505 -6 1 C-3 0 -3 0 0 0 Z " fill="#7C7C7C" transform="translate(236,308)"/>
<path d="M0 0 C1.58409994 0.11487748 3.16728963 0.24234508 4.75 0.375 C6.07257813 0.47941406 6.07257813 0.47941406 7.421875 0.5859375 C9.99066382 0.99850055 11.75841015 1.71160957 14 3 C14 3.33 14 3.66 14 4 C8.93767116 4.48990279 4.67369154 2.7106322 0 1 C0 0.67 0 0.34 0 0 Z " fill="#555555" transform="translate(304,143)"/>
<path d="M0 0 C0 3 0 3 -2.5 5.6875 C-3.325 6.450625 -4.15 7.21375 -5 8 C-5 6.35 -5 4.7 -5 3 C-4.34 3 -3.68 3 -3 3 C-3 2.34 -3 1.68 -3 1 C-2.01 0.67 -1.02 0.34 0 0 Z " fill="#737373" transform="translate(271,352)"/>
<path d="M0 0 C2.69082872 0.17635452 5.32851446 0.61835921 8 1 C8 1.33 8 1.66 8 2 C6.906875 2.103125 5.81375 2.20625 4.6875 2.3125 C1.14440371 2.97307727 0.06756277 3.2027092 -2 6 C-1.125 1.125 -1.125 1.125 0 0 Z " fill="#464646" transform="translate(286,242)"/>
<path d="M0 0 C0.66 0.33 1.32 0.66 2 1 C2.625 3.5625 2.625 3.5625 3 6 C2.01 6 1.02 6 0 6 C-0.66 5.01 -1.32 4.02 -2 3 C-1.34 2.01 -0.68 1.02 0 0 Z " fill="#E5E5E5" transform="translate(320,216)"/>
<path d="M0 0 C1.98 0 3.96 0 6 0 C6.144375 0.61875 6.28875 1.2375 6.4375 1.875 C6.93152225 4.03258322 6.93152225 4.03258322 8 6 C4.63408134 4.55746343 2.48952921 2.66735273 0 0 Z " fill="#6E6E6E" transform="translate(128,234)"/>
<path d="M0 0 C1.98 0 3.96 0 6 0 C5.2884375 0.61875 5.2884375 0.61875 4.5625 1.25 C2.83733482 3.182185 2.43415125 4.48192275 2 7 C0 4 0 4 0 0 Z " fill="#CDCDCD" transform="translate(231,128)"/>
<path d="M0 0 C2.64 0.33 5.28 0.66 8 1 C7.67 1.99 7.34 2.98 7 4 C3.73045798 3.43628586 2.17424117 2.50037734 0 0 Z " fill="#DADADA" transform="translate(82,199)"/>
<path d="M0 0 C0.66 1.32 1.32 2.64 2 4 C1.01 4.495 1.01 4.495 0 5 C0 5.66 0 6.32 0 7 C-0.99 7 -1.98 7 -3 7 C-2.38722388 4.03824877 -1.74627478 2.61941217 0 0 Z " fill="#7A7A7A" transform="translate(168,170)"/>
<path d="M0 0 C0.66 1.32 1.32 2.64 2 4 C1.07451225 6.69933926 0.57626463 7.71186768 -2 9 C-1.34 6.03 -0.68 3.06 0 0 Z " fill="#6C6C6C" transform="translate(256,330)"/>
<path d="" fill="#000000" transform="translate(0,0)"/>
<path d="" fill="#000000" transform="translate(0,0)"/>
<path d="" fill="#000000" transform="translate(0,0)"/>
<path d="" fill="#000000" transform="translate(0,0)"/>
<path d="" fill="#000000" transform="translate(0,0)"/>
<path d="" fill="#000000" transform="translate(0,0)"/>
<path d="" fill="#000000" transform="translate(0,0)"/>
<path d="" fill="#000000" transform="translate(0,0)"/>
<path d="" fill="#000000" transform="translate(0,0)"/>
<path d="" fill="#000000" transform="translate(0,0)"/>
<path d="" fill="#000000" transform="translate(0,0)"/>
<path d="" fill="#000000" transform="translate(0,0)"/>
<path d="" fill="#000000" transform="translate(0,0)"/>
<path d="" fill="#000000" transform="translate(0,0)"/>
<path d="" fill="#000000" transform="translate(0,0)"/>
<path d="" fill="#000000" transform="translate(0,0)"/>
<path d="" fill="#000000" transform="translate(0,0)"/>
<path d="" fill="#000000" transform="translate(0,0)"/>
<path d="" fill="#000000" transform="translate(0,0)"/>
<path d="" fill="#000000" transform="translate(0,0)"/>
<path d="" fill="#000000" transform="translate(0,0)"/>
<path d="" fill="#000000" transform="translate(0,0)"/>
<path d="" fill="#000000" transform="translate(0,0)"/>
<path d="" fill="#000000" transform="translate(0,0)"/>
<path d="" fill="#000000" transform="translate(0,0)"/>
<path d="" fill="#000000" transform="translate(0,0)"/>
<path d="" fill="#000000" transform="translate(0,0)"/>
<path d="" fill="#000000" transform="translate(0,0)"/>
<path d="" fill="#000000" transform="translate(0,0)"/>
<path d="" fill="#000000" transform="translate(0,0)"/>
<path d="" fill="#000000" transform="translate(0,0)"/>
<path d="" fill="#000000" transform="translate(0,0)"/>
<path d="" fill="#000000" transform="translate(0,0)"/>
<path d="" fill="#000000" transform="translate(0,0)"/>
<path d="" fill="#000000" transform="translate(0,0)"/>
<path d="" fill="#000000" transform="translate(0,0)"/>
<path d="" fill="#000000" transform="translate(0,0)"/>
<path d="" fill="#000000" transform="translate(0,0)"/>
<path d="" fill="#000000" transform="translate(0,0)"/>
<path d="" fill="#000000" transform="translate(0,0)"/>
<path d="" fill="#000000" transform="translate(0,0)"/>
<path d="" fill="#000000" transform="translate(0,0)"/>
<path d="" fill="#000000" transform="translate(0,0)"/>
<path d="" fill="#000000" transform="translate(0,0)"/>
<path d="" fill="#000000" transform="translate(0,0)"/>
<path d="" fill="#000000" transform="translate(0,0)"/>
<path d="" fill="#000000" transform="translate(0,0)"/>
<path d="" fill="#000000" transform="translate(0,0)"/>
<path d="" fill="#000000" transform="translate(0,0)"/>
<path d="" fill="#000000" transform="translate(0,0)"/>
<path d="" fill="#000000" transform="translate(0,0)"/>
<path d="" fill="#000000" transform="translate(0,0)"/>
<path d="" fill="#000000" transform="translate(0,0)"/>
<path d="" fill="#000000" transform="translate(0,0)"/>
<path d="" fill="#000000" transform="translate(0,0)"/>
<path d="" fill="#000000" transform="translate(0,0)"/>
<path d="" fill="#000000" transform="translate(0,0)"/>
<path d="" fill="#000000" transform="translate(0,0)"/>
<path d="" fill="#000000" transform="translate(0,0)"/>
<path d="" fill="#000000" transform="translate(0,0)"/>
<path d="" fill="#000000" transform="translate(0,0)"/>
<path d="" fill="#000000" transform="translate(0,0)"/>
<path d="" fill="#000000" transform="translate(0,0)"/>
<path d="" fill="#000000" transform="translate(0,0)"/>
<path d="" fill="#000000" transform="translate(0,0)"/>
<path d="" fill="#000000" transform="translate(0,0)"/>
<path d="" fill="#000000" transform="translate(0,0)"/>
<path d="" fill="#000000" transform="translate(0,0)"/>
<path d="" fill="#000000" transform="translate(0,0)"/>
<path d="" fill="#000000" transform="translate(0,0)"/>
<path d="" fill="#000000" transform="translate(0,0)"/>
<path d="" fill="#000000" transform="translate(0,0)"/>
<path d="" fill="#000000" transform="translate(0,0)"/>
<path d="" fill="#000000" transform="translate(0,0)"/>
<path d="" fill="#000000" transform="translate(0,0)"/>
<path d="" fill="#000000" transform="translate(0,0)"/>
<path d="" fill="#000000" transform="translate(0,0)"/>
<path d="" fill="#000000" transform="translate(0,0)"/>
<path d="" fill="#000000" transform="translate(0,0)"/>
<path d="" fill="#000000" transform="translate(0,0)"/>
<path d="" fill="#000000" transform="translate(0,0)"/>
<path d="" fill="#000000" transform="translate(0,0)"/>
<path d="" fill="#000000" transform="translate(0,0)"/>
<path d="" fill="#000000" transform="translate(0,0)"/>
<path d="" fill="#000000" transform="translate(0,0)"/>
<path d="" fill="#000000" transform="translate(0,0)"/>
<path d="" fill="#000000" transform="translate(0,0)"/>
<path d="" fill="#000000" transform="translate(0,0)"/>
<path d="" fill="#000000" transform="translate(0,0)"/>
<path d="" fill="#000000" transform="translate(0,0)"/>
</svg>
